<mxfile host="Electron" modified="2024-01-26T04:51:58.584Z" agent="Mozilla/5.0 (X11; Linux x86_64) AppleWebKit/537.36 (KHTML, like Gecko) draw.io/22.1.21 Chrome/120.0.6099.109 Electron/28.1.0 Safari/537.36" etag="qcTUOW2GZMyqZGBwjHqI" version="22.1.21" type="device">
  <diagram name="Page-1" id="xaL-XLHe2RaF61SG50eS">
    <mxGraphModel dx="540" dy="1022" grid="1" gridSize="10" guides="1" tooltips="1" connect="1" arrows="1" fold="1" page="1" pageScale="1" pageWidth="850" pageHeight="1100" math="0" shadow="0">
      <root>
        <mxCell id="0" />
        <mxCell id="1" parent="0" />
        <mxCell id="BYrHaeywXYG37cz7llwu-2" value="deck" style="rounded=0;whiteSpace=wrap;html=1;" vertex="1" parent="1">
          <mxGeometry x="240" y="380" width="120" height="60" as="geometry" />
        </mxCell>
        <mxCell id="BYrHaeywXYG37cz7llwu-3" value="archetype&lt;br&gt;(determined by champs and regions)" style="rounded=0;whiteSpace=wrap;html=1;" vertex="1" parent="1">
          <mxGeometry x="440" y="380" width="120" height="60" as="geometry" />
        </mxCell>
        <mxCell id="BYrHaeywXYG37cz7llwu-4" value="" style="edgeStyle=entityRelationEdgeStyle;fontSize=12;html=1;endArrow=ERoneToMany;rounded=0;entryX=1;entryY=0.5;entryDx=0;entryDy=0;" edge="1" parent="1" source="BYrHaeywXYG37cz7llwu-3" target="BYrHaeywXYG37cz7llwu-2">
          <mxGeometry width="100" height="100" relative="1" as="geometry">
            <mxPoint x="290" y="670" as="sourcePoint" />
            <mxPoint x="390" y="570" as="targetPoint" />
          </mxGeometry>
        </mxCell>
        <mxCell id="BYrHaeywXYG37cz7llwu-7" value="has a&amp;nbsp;" style="edgeLabel;html=1;align=center;verticalAlign=middle;resizable=0;points=[];" vertex="1" connectable="0" parent="BYrHaeywXYG37cz7llwu-4">
          <mxGeometry x="-0.1" y="-1" relative="1" as="geometry">
            <mxPoint as="offset" />
          </mxGeometry>
        </mxCell>
        <mxCell id="BYrHaeywXYG37cz7llwu-10" value="deckCode&lt;br&gt;(string that encodes every card in the deck) Corresponds to a unique deck" style="rounded=0;whiteSpace=wrap;html=1;" vertex="1" parent="1">
          <mxGeometry x="225" y="590" width="150" height="90" as="geometry" />
        </mxCell>
        <mxCell id="BYrHaeywXYG37cz7llwu-14" value="match" style="rounded=0;whiteSpace=wrap;html=1;" vertex="1" parent="1">
          <mxGeometry y="480" width="120" height="60" as="geometry" />
        </mxCell>
        <mxCell id="BYrHaeywXYG37cz7llwu-15" value="player" style="rounded=0;whiteSpace=wrap;html=1;" vertex="1" parent="1">
          <mxGeometry y="260" width="120" height="60" as="geometry" />
        </mxCell>
        <mxCell id="BYrHaeywXYG37cz7llwu-30" value="" style="edgeStyle=entityRelationEdgeStyle;fontSize=12;html=1;endArrow=ERoneToMany;startArrow=ERzeroToMany;rounded=0;exitX=0;exitY=0;exitDx=0;exitDy=0;entryX=1;entryY=1;entryDx=0;entryDy=0;" edge="1" parent="1" source="BYrHaeywXYG37cz7llwu-2" target="BYrHaeywXYG37cz7llwu-15">
          <mxGeometry width="100" height="100" relative="1" as="geometry">
            <mxPoint x="110" y="590" as="sourcePoint" />
            <mxPoint x="250" y="270" as="targetPoint" />
          </mxGeometry>
        </mxCell>
        <mxCell id="BYrHaeywXYG37cz7llwu-31" value="" style="edgeStyle=entityRelationEdgeStyle;fontSize=12;html=1;endArrow=ERzeroToMany;endFill=1;rounded=0;entryX=1;entryY=0;entryDx=0;entryDy=0;exitX=0;exitY=1;exitDx=0;exitDy=0;" edge="1" parent="1" source="BYrHaeywXYG37cz7llwu-2" target="BYrHaeywXYG37cz7llwu-14">
          <mxGeometry width="100" height="100" relative="1" as="geometry">
            <mxPoint x="160" y="460" as="sourcePoint" />
            <mxPoint x="210" y="490" as="targetPoint" />
          </mxGeometry>
        </mxCell>
        <mxCell id="BYrHaeywXYG37cz7llwu-32" value="2" style="edgeLabel;html=1;align=center;verticalAlign=middle;resizable=0;points=[];" vertex="1" connectable="0" parent="BYrHaeywXYG37cz7llwu-31">
          <mxGeometry x="-0.7896" y="3" relative="1" as="geometry">
            <mxPoint as="offset" />
          </mxGeometry>
        </mxCell>
        <mxCell id="BYrHaeywXYG37cz7llwu-36" value="" style="endArrow=none;html=1;rounded=0;exitX=0.5;exitY=0;exitDx=0;exitDy=0;entryX=0.5;entryY=1;entryDx=0;entryDy=0;" edge="1" parent="1" source="BYrHaeywXYG37cz7llwu-14" target="BYrHaeywXYG37cz7llwu-15">
          <mxGeometry width="50" height="50" relative="1" as="geometry">
            <mxPoint x="140" y="560" as="sourcePoint" />
            <mxPoint x="190" y="510" as="targetPoint" />
          </mxGeometry>
        </mxCell>
        <mxCell id="BYrHaeywXYG37cz7llwu-37" value="2" style="edgeLabel;html=1;align=center;verticalAlign=middle;resizable=0;points=[];" vertex="1" connectable="0" parent="BYrHaeywXYG37cz7llwu-36">
          <mxGeometry x="0.7905" relative="1" as="geometry">
            <mxPoint as="offset" />
          </mxGeometry>
        </mxCell>
        <mxCell id="BYrHaeywXYG37cz7llwu-38" value="0, many" style="edgeLabel;html=1;align=center;verticalAlign=middle;resizable=0;points=[];" vertex="1" connectable="0" parent="BYrHaeywXYG37cz7llwu-36">
          <mxGeometry x="-0.7353" y="3" relative="1" as="geometry">
            <mxPoint as="offset" />
          </mxGeometry>
        </mxCell>
        <mxCell id="BYrHaeywXYG37cz7llwu-42" value="" style="endArrow=none;html=1;rounded=0;exitX=0.5;exitY=0;exitDx=0;exitDy=0;entryX=0.5;entryY=1;entryDx=0;entryDy=0;" edge="1" parent="1">
          <mxGeometry width="50" height="50" relative="1" as="geometry">
            <mxPoint x="300.0000000000001" y="590" as="sourcePoint" />
            <mxPoint x="300.0000000000001" y="440" as="targetPoint" />
          </mxGeometry>
        </mxCell>
        <mxCell id="BYrHaeywXYG37cz7llwu-43" value="1" style="edgeLabel;html=1;align=center;verticalAlign=middle;resizable=0;points=[];" vertex="1" connectable="0" parent="BYrHaeywXYG37cz7llwu-42">
          <mxGeometry x="0.8271" y="1" relative="1" as="geometry">
            <mxPoint as="offset" />
          </mxGeometry>
        </mxCell>
        <mxCell id="BYrHaeywXYG37cz7llwu-44" value="1" style="edgeLabel;html=1;align=center;verticalAlign=middle;resizable=0;points=[];" vertex="1" connectable="0" parent="BYrHaeywXYG37cz7llwu-42">
          <mxGeometry x="-0.8281" y="1" relative="1" as="geometry">
            <mxPoint as="offset" />
          </mxGeometry>
        </mxCell>
        <mxCell id="BYrHaeywXYG37cz7llwu-45" value="has" style="edgeLabel;html=1;align=center;verticalAlign=middle;resizable=0;points=[];" vertex="1" connectable="0" parent="BYrHaeywXYG37cz7llwu-42">
          <mxGeometry x="-0.0143" y="-3" relative="1" as="geometry">
            <mxPoint as="offset" />
          </mxGeometry>
        </mxCell>
      </root>
    </mxGraphModel>
  </diagram>
</mxfile>
